<svg width="24" height="24" viewBox="0 0 24 24" fill="none" xmlns="http://www.w3.org/2000/svg">
<circle cx="12" cy="12" r="12" fill="url(#paint0_linear_237_4603)"/>
<path d="M15.9485 7.2H8.65155C7.8277 7.2 7.20001 7.82769 7.20001 8.65154V15.9485C7.20001 16.7723 7.8277 17.4 8.65155 17.4H15.9485C16.7723 17.4 17.4 16.7723 17.4 15.9485V8.65154C17.4 7.82769 16.7723 7.2 15.9485 7.2ZM12.3 15.36C13.9869 15.36 15.36 14.0262 15.36 12.4177C15.36 12.1431 15.3208 11.8292 15.2423 11.5938H16.1054V15.7523C16.1054 15.9485 15.9485 16.1446 15.7131 16.1446H8.88694C8.69078 16.1446 8.49463 15.9877 8.49463 15.7523V11.5546H9.39694C9.31848 11.8292 9.27924 12.1038 9.27924 12.3785C9.24001 14.0262 10.6131 15.36 12.3 15.36ZM12.3 14.1831C11.2016 14.1831 10.3385 13.32 10.3385 12.2608C10.3385 11.2015 11.2016 10.3385 12.3 10.3385C13.3985 10.3385 14.2616 11.2015 14.2616 12.2608C14.2616 13.3592 13.3985 14.1831 12.3 14.1831ZM16.0662 9.98538C16.0662 10.2208 15.87 10.4169 15.6346 10.4169H14.5362C14.3008 10.4169 14.1046 10.2208 14.1046 9.98538V8.92615C14.1046 8.69077 14.3008 8.49461 14.5362 8.49461H15.6346C15.87 8.49461 16.0662 8.69077 16.0662 8.92615V9.98538Z" fill="white"/>
<defs>
<linearGradient id="paint0_linear_237_4603" x1="5.1" y1="21.3" x2="21" y2="4.8" gradientUnits="userSpaceOnUse">
<stop stop-color="#EEA054"/>
<stop offset="0.502762" stop-color="#D64763"/>
<stop offset="1" stop-color="#B62A99"/>
</linearGradient>
</defs>
</svg>
