<svg width="25" height="24" viewBox="0 0 25 24" fill="none" xmlns="http://www.w3.org/2000/svg">
<circle cx="12.5" cy="12" r="12" fill="#F40000"/>
<path d="M17.7279 11.3479C17.7279 11.1151 17.6891 10.8436 17.6891 10.5333C17.6503 10.223 17.6115 9.91272 17.5727 9.6412C17.4951 9.3309 17.3788 9.09818 17.146 8.90424C16.9521 8.7103 16.6806 8.59393 16.4091 8.55514C15.5169 8.43878 14.1982 8.39999 12.4139 8.39999C10.6297 8.39999 9.27209 8.43878 8.41876 8.55514C8.14725 8.59393 7.87573 8.7103 7.68179 8.90424C7.48785 9.09818 7.3327 9.3309 7.25512 9.6412C7.17755 9.91272 7.13877 10.1842 7.13877 10.5333C7.09998 10.8436 7.09998 11.1151 7.09998 11.3479C7.09998 11.5806 7.09998 11.8521 7.09998 12.24C7.09998 12.6279 7.09998 12.9382 7.09998 13.1321C7.09998 13.3648 7.13877 13.6364 7.13877 13.9467C7.17755 14.257 7.21634 14.5673 7.25512 14.8388C7.3327 15.1491 7.44907 15.3818 7.68179 15.5758C7.87573 15.7697 8.14725 15.8861 8.41876 15.9248C9.31088 16.0412 10.6297 16.08 12.4139 16.08C14.1982 16.08 15.5557 16.0412 16.4091 15.9248C16.6806 15.8861 16.9521 15.7697 17.146 15.5758C17.34 15.3818 17.4951 15.1491 17.5727 14.8388C17.6503 14.5673 17.6891 14.2958 17.6891 13.9467C17.7279 13.6364 17.7279 13.3648 17.7279 13.1321C17.7279 12.8994 17.7279 12.6279 17.7279 12.24C17.7279 11.8521 17.7279 11.5418 17.7279 11.3479ZM14.4697 12.5503L11.4054 14.4509C11.3666 14.4897 11.2891 14.5285 11.2115 14.5285C11.1339 14.5285 11.0951 14.5285 11.0176 14.4897C10.9012 14.4121 10.8236 14.2958 10.8236 14.1406V10.3006C10.8236 10.1454 10.9012 10.0291 11.0176 9.95151C11.1339 9.87393 11.2891 9.87393 11.4054 9.95151L14.4697 11.8521C14.586 11.9297 14.6636 12.0461 14.6636 12.1624C14.6636 12.2788 14.586 12.4727 14.4697 12.5503Z" fill="white"/>
</svg>
